<!DOCTYPE svg PUBLIC "-//W3C//DTD SVG 1.1//EN" "http://www.w3.org/Graphics/SVG/1.1/DTD/svg11.dtd">
<!-- Uploaded to: SVG Repo, www.svgrepo.com, Transformed by: SVG Repo Mixer Tools -->
<svg fill="#ffffff" height="800px" width="800px" version="1.1" id="Layer_1" xmlns="http://www.w3.org/2000/svg" xmlns:xlink="http://www.w3.org/1999/xlink" viewBox="0 0 470.773 470.773" xml:space="preserve" stroke="#ffffff">
<g id="SVGRepo_bgCarrier" stroke-width="0"/>
<g id="SVGRepo_tracerCarrier" stroke-linecap="round" stroke-linejoin="round"/>
<g id="SVGRepo_iconCarrier"> <path d="M416.579,156.286c-18.778,0-34,15.222-34,34h-10V154c0-18.778-15.222-34-34-34c-18.778,0-34,15.222-34,34v36.286h-10 v-69.429c0-18.778-15.222-34-34-34c-18.778,0-34,15.222-34,34v69.429h-10V34c0-18.778-15.222-34-34-34c-18.778,0-34,15.222-34,34 v277.861h-10L85.017,196.998c-7.936-17.02-28.166-24.381-45.184-16.445c-17.018,7.936-24.381,28.165-16.445,45.184l114.262,245.037 h277.212l4.142-8.31c1.289-2.587,31.574-64.054,31.574-124.431V190.286C450.579,171.508,435.356,156.286,416.579,156.286z"/> </g>
</svg>