<svg width="18" height="18" viewBox="0 0 18 18" fill="none" xmlns="http://www.w3.org/2000/svg">
<g filter="url(#filter0_b_577_116720)">
<circle cx="9" cy="9" r="9" fill="#404258" fill-opacity="0.3"/>
</g>
<path fill-rule="evenodd" clip-rule="evenodd" d="M12.1341 5.15923C12.3223 4.95715 12.6387 4.94591 12.8408 5.13412C13.0429 5.32232 13.0541 5.6387 12.8659 5.84078L10.1833 8.72105L12.8659 11.6013C13.0541 11.8034 13.0429 12.1198 12.8408 12.308C12.6387 12.4962 12.3223 12.485 12.1341 12.2829L9.5 9.45468L6.86589 12.2829C6.67768 12.485 6.3613 12.4962 6.15923 12.308C5.95715 12.1198 5.94591 11.8034 6.13412 11.6013L8.81673 8.72105L6.13412 5.84078C5.94591 5.6387 5.95715 5.32232 6.15923 5.13412C6.3613 4.94591 6.67768 4.95715 6.86589 5.15923L9.5 7.98743L12.1341 5.15923Z" fill="white"/>
<defs>
<filter id="filter0_b_577_116720" x="-4" y="-4" width="26" height="26" filterUnits="userSpaceOnUse" color-interpolation-filters="sRGB">
<feFlood flood-opacity="0" result="BackgroundImageFix"/>
<feGaussianBlur in="BackgroundImageFix" stdDeviation="2"/>
<feComposite in2="SourceAlpha" operator="in" result="effect1_backgroundBlur_577_116720"/>
<feBlend mode="normal" in="SourceGraphic" in2="effect1_backgroundBlur_577_116720" result="shape"/>
</filter>
</defs>
</svg>
